<svg width="31" height="31" viewBox="0 0 31 31" fill="none" xmlns="http://www.w3.org/2000/svg">
<path d="M19.0886 1.99805L5.8125 18.4062H13.5625L11.6547 28.8948C11.651 28.9154 11.652 28.9365 11.6574 28.9567C11.6628 28.9769 11.6726 28.9956 11.686 29.0116C11.6995 29.0276 11.7163 29.0404 11.7352 29.0492C11.7542 29.058 11.7748 29.0626 11.7957 29.0625C11.818 29.0625 11.8399 29.0573 11.8598 29.0473C11.8796 29.0373 11.8969 29.0228 11.9102 29.005L25.1875 12.5938H17.4375L19.3544 2.104C19.357 2.08311 19.3551 2.0619 19.3488 2.04179C19.3426 2.02168 19.3321 2.00314 19.3182 1.98739C19.3042 1.97164 19.287 1.95904 19.2678 1.95044C19.2486 1.94184 19.2277 1.93743 19.2067 1.9375C19.1836 1.93759 19.1609 1.94312 19.1404 1.95364C19.1199 1.96416 19.1021 1.97938 19.0886 1.99805Z" stroke="#1B54B8" stroke-width="2.37784" stroke-linecap="round" stroke-linejoin="round"/>
</svg>
