<svg width="88" height="88" viewBox="0 0 88 88" fill="none" xmlns="http://www.w3.org/2000/svg">
<g id="ri:exchange-dollar-fill">
<path id="Vector" d="M19.7192 16.551C26.4166 10.6074 35.0638 7.33093 44.0182 7.34403C64.2692 7.34403 80.6849 23.7597 80.6849 44.0107C80.6968 51.505 78.4014 58.8213 74.1106 64.9657L64.1849 44.0107H73.3516C73.3517 38.1783 71.6131 32.4783 68.358 27.6389C65.1029 22.7994 60.479 19.0401 55.077 16.8413C49.675 14.6425 43.7401 14.1039 38.0306 15.2944C32.321 16.485 27.096 19.3505 23.0229 23.525L19.7229 16.551H19.7192ZM68.3136 71.4704C61.6166 77.4118 52.9709 80.6869 44.0182 80.6737C23.7672 80.6737 7.35156 64.2617 7.35156 44.007C7.35156 36.219 9.78256 28.9957 13.9259 23.0557L23.8516 44.0107H14.6849C14.6855 49.8423 16.4244 55.5413 19.6793 60.38C22.9342 65.2187 27.5575 68.9774 32.9588 71.1761C38.36 73.3747 44.294 73.9136 50.0029 72.7238C55.7119 71.534 60.9366 68.6696 65.0099 64.4964L68.3136 71.4704ZM31.1849 51.3404H51.3516C51.8378 51.3404 52.3041 51.1472 52.6479 50.8034C52.9917 50.4596 53.1849 49.9933 53.1849 49.507C53.1849 49.0208 52.9917 48.5545 52.6479 48.2107C52.3041 47.8669 51.8378 47.6737 51.3516 47.6737H36.6849C34.2537 47.6737 31.9222 46.7079 30.2031 44.9888C28.484 43.2698 27.5182 40.9382 27.5182 38.507C27.5182 36.0759 28.484 33.7443 30.2031 32.0252C31.9222 30.3061 34.2537 29.3404 36.6849 29.3404H40.3516V25.6737H47.6849V29.3404H56.8516V36.6737H36.6849C36.1987 36.6737 35.7323 36.8669 35.3885 37.2107C35.0447 37.5545 34.8516 38.0208 34.8516 38.507C34.8516 38.9933 35.0447 39.4596 35.3885 39.8034C35.7323 40.1472 36.1987 40.3404 36.6849 40.3404H51.3516C53.7827 40.3404 56.1143 41.3061 57.8334 43.0252C59.5525 44.7443 60.5182 47.0759 60.5182 49.507C60.5182 51.9382 59.5525 54.2698 57.8334 55.9888C56.1143 57.7079 53.7827 58.6737 51.3516 58.6737H47.6849V62.3404H40.3516V58.6737H31.1849V51.3404Z" fill="#1B54B8"/>
</g>
</svg>
