<svg width="88" height="88" viewBox="0 0 88 88" fill="none" xmlns="http://www.w3.org/2000/svg">
<path d="M77 44L44 11L11 44H18.3333V69.6667C18.3333 71.6116 19.106 73.4768 20.4812 74.8521C21.8565 76.2274 23.7217 77 25.6667 77H42.9" stroke="#1B54B8" stroke-width="7.33333" stroke-linecap="round" stroke-linejoin="round"/>
<path d="M33 77.0001V55.0001C33 53.0552 33.7726 51.1899 35.1479 49.8146C36.5232 48.4394 38.3884 47.6667 40.3333 47.6667H47.6667M74.0667 74.0668L80.6667 80.6667M55 66.0001C55 68.9175 56.1589 71.7154 58.2218 73.7783C60.2847 75.8412 63.0826 77.0001 66 77.0001C68.9174 77.0001 71.7153 75.8412 73.7782 73.7783C75.8411 71.7154 77 68.9175 77 66.0001C77 63.0827 75.8411 60.2848 73.7782 58.2219C71.7153 56.159 68.9174 55.0001 66 55.0001C63.0826 55.0001 60.2847 56.159 58.2218 58.2219C56.1589 60.2848 55 63.0827 55 66.0001Z" stroke="#1B54B8" stroke-width="7.33333" stroke-linecap="round" stroke-linejoin="round"/>
</svg>
